<?xml version="1.0" encoding="UTF-8" standalone="no"?>
<svg
   xmlns:dc="http://purl.org/dc/elements/1.1/"
   xmlns:cc="http://creativecommons.org/ns#"
   xmlns:rdf="http://www.w3.org/1999/02/22-rdf-syntax-ns#"
   xmlns:svg="http://www.w3.org/2000/svg"
   xmlns="http://www.w3.org/2000/svg"
   width="78.580986mm"
   height="60.035202mm"
   viewBox="0 0 78.580986 60.035202"
   version="1.1"
   id="svg8">
  <defs
     id="defs2" />
  <metadata
     id="metadata5">
    <rdf:RDF>
      <cc:Work
         rdf:about="">
        <dc:format>image/svg+xml</dc:format>
        <dc:type
           rdf:resource="http://purl.org/dc/dcmitype/StillImage" />
        <dc:title></dc:title>
      </cc:Work>
    </rdf:RDF>
  </metadata>
  <g
     transform="translate(-59.647558,-95.613492)"
     style="display:inline"
     id="layer3" />
  <g
     transform="translate(-59.647558,-95.613492)"
     style="display:inline;opacity:1"
     id="layer1">
    <g
       style="fill:#7460ee"
       transform="matrix(0.26458333,0,0,0.26458333,59.647558,86.340571)"
       id="g83">
      <g
         style="fill:#7460ee"
         id="g22">
        <g
           style="fill:#7460ee"
           id="g20">
          <g
             style="fill:#7460ee"
             id="g18">
            <path
               id="path10"
               transform="translate(-263.64336,-184.73399)"
               d="m 309.05078,219.7832 c -2.809,0 -5.45226,1.09399 -7.44726,3.08399 -2.017,2.012 -3.12696,4.69097 -3.12696,7.54297 v 159.36523 c 0,5.844 4.77263,10.61 10.64063,10.625 24.738,0.059 66.18339,5.21572 94.77539,35.13672 v -166.7793 c 0,-1.981 -0.50594,-3.84281 -1.46094,-5.38281 -23.467,-37.792 -68.56147,-43.5338 -93.35547,-43.5918 z m 44.10352,74.62305 c 7.68,0 15.10358,2.56057 20.90625,7.25391 4.26666,3.49866 6.48627,6.48593 8.96093,11.94726 h -13.05664 c -4.26666,-5.54667 -9.21602,-7.93554 -16.55468,-7.93554 -6.4,-10e-6 -11.86118,2.38943 -15.70118,6.9121 -3.24266,3.75467 -5.20507,9.21594 -5.20507,14.33594 0,11.776 9.47144,21.50391 21.16211,21.50391 6.05866,0 10.41185,-2.04783 15.61718,-7.42383 h 13.73828 c -4.94933,11.52 -16.12894,18.6875 -29.0996,18.6875 -18.43201,0 -33.19336,-14.59218 -33.19336,-32.85352 0,-17.83466 14.59111,-32.42773 32.42578,-32.42773 z"
               style="fill:#7460ee" />
            <path
               id="path12"
               transform="translate(-263.64336,-184.73399)"
               d="m 515.21094,219.78125 c -24.793,0.059 -69.88942,5.80175 -93.35742,43.59375 -0.955,1.54 -1.45899,3.40181 -1.45899,5.38281 v 166.77735 c 28.592,-29.921 70.03739,-35.07577 94.77539,-35.13477 5.867,-0.015 10.64063,-4.782 10.64063,-10.625 V 230.41016 c 0,-2.852 -1.11191,-5.53097 -3.12891,-7.54297 -1.995,-1.99 -4.63736,-3.08594 -7.44336,-3.08594 z m -66.02149,75.29883 h 12.97071 c 9.38664,0 13.31174,0.68293 17.0664,3.07226 4.608,2.90134 7.16797,7.85029 7.16797,13.73828 0,5.97334 -1.87608,9.216 -6.99609,11.86133 4.09598,1.70667 5.8877,2.90168 7.67968,5.29102 1.96268,2.56 3.07227,6.31355 3.07227,10.32422 0,6.48533 -2.988,12.11805 -8.19336,15.27539 -3.84,2.38933 -8.95969,3.49804 -15.95703,3.49804 h -16.81055 z m 11.69141,11.43359 v 12.88672 h 3.75391 c 7.08268,0 10.07031,-1.96366 10.07031,-6.48633 0,-4.352 -2.90288,-6.40039 -9.04688,-6.40039 z m 0,24.32031 v 16.12891 h 5.80273 c 8.19202,0 11.68946,-2.39083 11.68946,-7.9375 0,-5.54667 -3.83864,-8.19141 -11.94532,-8.19141 z"
               style="fill:#7460ee" />
            <path
               style="fill:#7460ee"
               d="m 286.373,71.801 h -7.706 v 133.241 c 0,14.921 -12.157,27.088 -27.101,27.125 -20.983,0.05 -55.581,4.153 -80.084,27.344 42.378,-10.376 87.052,-3.631 112.512,2.171 3.179,0.724 6.464,-0.024 9.011,-2.054 2.538,-2.025 3.994,-5.052 3.994,-8.301 V 82.427 C 297,76.568 292.232,71.801 286.373,71.801 Z"
               id="path14" />
            <path
               style="fill:#7460ee"
               d="M 18.332,205.042 V 71.801 H 10.626 C 4.768,71.801 0,76.568 0,82.427 v 168.897 c 0,3.25 1.456,6.276 3.994,8.301 2.545,2.029 5.827,2.78 9.011,2.054 25.46,-5.803 70.135,-12.547 112.511,-2.171 -24.502,-23.19 -59.1,-27.292 -80.083,-27.342 C 30.49,232.13 18.332,219.963 18.332,205.042 Z"
               id="path16" />
          </g>
        </g>
      </g>
      <g
         style="fill:#7460ee"
         id="g24" />
      <g
         style="fill:#7460ee"
         id="g26" />
      <g
         style="fill:#7460ee"
         id="g28" />
      <g
         style="fill:#7460ee"
         id="g30" />
      <g
         style="fill:#7460ee"
         id="g32" />
      <g
         style="fill:#7460ee"
         id="g34" />
      <g
         style="fill:#7460ee"
         id="g36" />
      <g
         style="fill:#7460ee"
         id="g38" />
      <g
         style="fill:#7460ee"
         id="g40" />
      <g
         style="fill:#7460ee"
         id="g42" />
      <g
         style="fill:#7460ee"
         id="g44" />
      <g
         style="fill:#7460ee"
         id="g46" />
      <g
         style="fill:#7460ee"
         id="g48" />
      <g
         style="fill:#7460ee"
         id="g50" />
      <g
         style="fill:#7460ee"
         id="g52" />
    </g>
  </g>
  <g
     transform="translate(-59.647558,-95.613492)"
     style="display:inline"
     id="layer4">
    <g
       transform="translate(0.71815476,1.0961312)"
       id="text941"
       style="font-style:normal;font-variant:normal;font-weight:normal;font-stretch:normal;font-size:22.57777786px;line-height:1.25;font-family:centu;-inkscape-font-specification:centu;letter-spacing:0px;word-spacing:0px;fill:#673ab7;fill-opacity:1;stroke:none;stroke-width:0.26458332"
       aria-label="C" />
    <g
       transform="translate(-0.52916663,1.0583333)"
       id="text941-5"
       style="font-style:normal;font-variant:normal;font-weight:normal;font-stretch:normal;font-size:10.58333302px;line-height:1.25;font-family:centu;-inkscape-font-specification:centu;letter-spacing:0px;word-spacing:0px;fill:#673ab7;fill-opacity:1;stroke:none;stroke-width:0.26458332"
       aria-label="B" />
    <text
       id="text1124"
       y="50.937492"
       x="103.37649"
       style="font-style:normal;font-variant:normal;font-weight:normal;font-stretch:normal;font-size:10.58333302px;line-height:1.25;font-family:centu;-inkscape-font-specification:centu;letter-spacing:0px;word-spacing:0px;fill:#7460ee;fill-opacity:1;stroke:none;stroke-width:0.26458332"
       xml:space="preserve"><tspan
         style="stroke-width:0.26458332"
         y="60.301262"
         x="103.37649"
         id="tspan1122" /><tspan
         id="tspan1126"
         style="stroke-width:0.26458332"
         y="73.530426"
         x="103.37649" /></text>
  </g>
</svg>
